<?xml version="1.0" encoding="UTF-8" standalone="no"?>
<!-- Created with Inkscape (http://www.inkscape.org/) -->
<svg id="svg2" xmlns:rdf="http://www.w3.org/1999/02/22-rdf-syntax-ns#" xmlns="http://www.w3.org/2000/svg" height="300" width="300" version="1.1" xmlns:cc="http://creativecommons.org/ns#" xmlns:dc="http://purl.org/dc/elements/1.1/">
<metadata id="metadata7">
<rdf:RDF>
<cc:Work rdf:about="">
<dc:format>image/svg+xml</dc:format>
<dc:type rdf:resource="http://purl.org/dc/dcmitype/StillImage"/>
<dc:title/>
</cc:Work>
</rdf:RDF>
</metadata>
<g id="layer1" transform="translate(585,-1192.3622)">
<path id="path2996" fill="#272727" d="m-585,1190,0,4.59c2.38,3.74,4.76,7.39,7.22,10.4-3.14,6.28-3.73,13.5-2.53,20.7-1.4-2.13-2.99-3.98-4.69-5.53v5.91c4.91,4.62,8.13,12.8,8.25,25.2,2.96,4.69,4.72,8.2,5.81,10.9,0.434-4.14,0.021-10.2-1.41-16.5,1.47,2.3,3.06,4.41,4.78,6.38-0.624-4.51-1.14-9.19-1.59-13.9,1.67,9.23,7.28,17.2,18.8,19.4,1.93-1.85,3.6-3.32,5.16-4.69-5.74,0.424-11-3.12-15-8.44,1.99,0.153,3.64,0.138,4.69-0.186,7.78,12.4,21.3-9.94,27.3-7.87,9.43,31.3-40.2,48.4-56.8,31.2v4.03c0.124,0.126,0.249,0.255,0.375,0.375-0.12,0.03-0.256,0.057-0.375,0.093v6.47c0.512,0.381,1.15,0.754,1.88,1.12,1.04-2.61,1.25-4.4,1.03-5.62-0.869-0.616-1.65-1.32-2.44-2.06,1.11-0.165,2.15,0.426,2.44,2.06,6.35,4.49,14.9,5.61,23.6,3.94-8.52,4.02-17.4,7.38-26.5,10.2v1.41c0.864-0.057,1.7-0.078,2.53-0.093,5.42,1,10.4,0.876,14.9,0-6.01,2.87-11.9,5.32-17.4,6.47v2.81c21.4-5.13,41.9-16.9,60.5-27.7-5.15-0.768-13,2.66-21.8,7.31,4.46-3.85,8.56-8.3,12.6-12.8,2.24-1.93,4.3-3.99,6.19-6.28-0.484,0.368-1.01,0.668-1.5,1.03,1.26-1.4,2.57-2.69,3.84-4.03-0.678,0.963-1.41,1.9-2.16,2.81,6.03-4.61,11.7-9.71,17-15.2-5.22,2.87-9.97,7.21-14.6,12.1,2.82-4.07,5.03-8.62,6.37-13.5-1.31-8.64-3.64-12.3-6.47-13.3,0.494-0.096,0.998-0.243,1.5-0.375,1.94-1,3.93-1.51,6-1.78,4.79,1.22,9.9,2.01,15.1,2.62-2.98-0.896-5.92-1.82-8.91-2.62,2.93,0.416,5.89,1.42,8.91,2.62,0.119,0.048,0.256,0.045,0.375,0.093,20.6,2.4,43.4,0.37,61.5-3.66-0.694,0.545-1.38,1.1-2.06,1.69,2.2,14.5-6.98,28.8-18.7,43.1,3.57-4.3,9.63-6.35,14.5-8.81,4.55-12.5,6.05-28.8,15.8-38.1,2.66-0.165,5.24-0.433,7.59-0.844-15.2,13.8-16.8,45.8-40.7,53.4,0.309-1.61,0.833-2.99,1.59-4.22-1.96,2.36-4.05,4.66-6.09,7.03,23.4-3.55,26.5-25.7,36.7-41.6-1.45,5.58,2.03,19.2,12.7,10.8,5.78-23.7,26.4-20.7,48.9-15.5-1.08-0.126-2.15-0.222-3.28-0.282-0.407,0.069-0.809,0.204-1.22,0.282,5.94,0.332,11.8,1.55,17.2,3.47-1.06-0.467-2.15-0.927-3.28-1.31-3.01-0.704-6.02-1.37-9-2.06,3.21,0.404,6.22,1.11,9,2.06,11.9,2.78,23.8,5.22,33.8,3.75,1.07-1.28,2.17-2.41,3.28-3.56-10.1,1.98-21.4-0.297-32.9-3.28,18,2.81,36,0.832,53.4-13.7-26.7,13.6-58.5,7.52-88.7,1.03-0.228-0.072-0.431-0.117-0.656-0.186,18.4,3.08,35.6,4.74,52.6,3.28,0.155-0.908,0.474-1.8,0.844-2.62,1.29-0.045,2.57-0.057,3.84-0.186-1.57,0.929-3.12,1.88-4.69,2.81,18.2-1.57,36.1-6.64,54.7-17.3-4.22,4.21-8.64,7.68-13.2,10.5-0.505,0.102-0.982,0.219-1.5,0.375-0.126,0.246-0.247,0.508-0.375,0.75-1.06,2-2.2,3.8-3.38,5.44,0.403-0.117,0.819-0.183,1.22-0.282-0.531,0.207-1.06,0.499-1.59,0.75-3.93,5.32-8.46,8.72-13.4,10.8-11.9,14-17,35.4,6.56,42.1,10.6-41.1,14.2,9.99-6.09,11.5,33.8,3.32,11.6-58,7.69-18.4-37,17.7,11.7-72.5,21.3-34.4-20.7-27-46.6,47.2-25.5,28.5,8.32-42.2,39,39.1-4.41,24.4-2.35,0-4.99-0.569-7.97-2.06,20.4,22.7,36-5.98,34.8-24.7,1.32,4.53,3.45,8.21,6.19,11v-4.03c-5.46-5.64-7.3-15-2.34-28.8,0.39,2.68,0.667,5.76,0.75,9.37,0.54,1.3,1.08,2.41,1.59,3.56v-22.2c-1.22-3.13-2.9-5.37-4.88-6.75,1.78,0.75,3.39,1.88,4.88,3.28v-5.91c-2.77-2.53-5.92-4.14-9.47-4.41,4.54-1.35,7.69-3.13,9.47-5.06v-7.22c-3.2-2.12-10.4-2.02-20.9,3.28,2.36-2.4,4.38-5.2,6.09-8.25-2.46,3.16-8.34,3.07-20.1-3.19,4.48-0.54,7.51-2.42,9.47-5.34h-9.84c-5.53,1.6-11.5,3.2-16.5,6.09,1.09-1.86,2-3.9,2.81-6.09h-2.62c-2.78,6.77-6.88,11.6-13.3,11.5-10.4,4.88-17.5-2.63-21-11.5h-8.91c6.29,14,18.7,22.5,37.5,16,37.9-27.3-10.2,30.5,9.84,1.12-22.1,14.3-39.1,3.13-47.7-17.2h-7.22c5.11,17.9,22.1,28.1,40.1,30-18.1-0.632-37.4-5.81-55.9-5.72,7.08-6.12,11.1-14.6,13-24.3h-2.53c-1.28,7.2-4.06,14-9.47,20.1-2.99,1.75-6.05,3.24-9.09,4.69-8.95,0.915-17.5,3.54-25.7,8.91-31.9,7.16-65.7,2.08-99-5.25-0.0672-0.165-0.12-0.306-0.188-0.469,8.53,0.138,11.3-2.8,11-6,27.7,14.2,63.8,18.4,87.9,6,26,0.135,35.1-11.7,38.5-27.9h-12.7c-3.37,4.34-7.56,7.94-12.7,10.6,24.7-8.95-14.7,10.9-37.2,15.7,21.7-1.63,41.4-7.12,53.3-13.5-38.5,25.6-87.5,27.3-126-0.469-4.9-0.761-8.86-2.24-12.1-4.22,2.59,2.31,5.39,4.5,8.34,6.56-1.49,0.647-2.89,1.86-3.94,3.94-13.3-18.2-29,3.99-28.5,24.3-1.42-14.5-3.02-29.1-8.62-41.5,1.53,1.47,3.4,3.14,5.81,5.25l9.75-2.16c-1.33-1.36-8.91-3.38-4.31-3.38-0.416-0.34-0.811-0.686-1.22-1.03h-16.7zm39.4,8.06c-2.88-2.57-5.53-5.22-7.87-8.06h-0.0936c1.81,3.15,4.45,5.91,7.97,8.06zm12.1,4.22c16.8,10.3,37.8,14.4,58.2,14.5-17.9-2.37-47.6-13.7-63.7-26.8h-9.66c0.641,0.678,1.32,1.38,2.06,2.06,3.98,3.94,8.39,7.32,13.1,10.2zm58.2,14.5c2.13,0.282,4.15,0.452,5.91,0.469,2.21,0.03,5.03-0.392,8.06-1.03-4.61,0.348-9.25,0.599-14,0.562zm51.2-16.2c-2.23,0.81-5,1.87-8.34,3.19,3.04-0.809,5.82-1.9,8.34-3.19zm-8.34,3.19c-5.39,1.43-11.6,2.01-18.8,1.69-2.91,1.06-6.24,1.91-9.75,2.44,4.06-4.02,1.01-11.3-4.03-17.9h-3.56c4.11,5.12,6.43,11.7,1.12,17.8-11.9-6.08-19.8-12-24.7-17.8h-3.84c0.538,0.541,1.14,1.05,1.69,1.59-1.05-0.54-2.11-1.07-3.28-1.59h-7.69c7.79,4.53,15.1,9.36,17.6,14.1-7.51-5.05-15.2-9.88-23.2-14.1h-8.91c10.3,6.51,22.4,12.7,29.6,16.9,3.49-2.58,4.74-4.87,4.5-7.03,3.19,3.02,6.16,5.99,8.44,8.72-19.2-0.943-40.6-7.51-52.9-18.6h-5.25c19.9,21.5,74.6,30,99.3,15.2,1.41-0.568,2.41-0.915,3.66-1.41zm114,83.7c0.323,0.0003,0.626-0.069,0.938-0.093-0.489-0.048-0.987-0.03-1.5-0.093,0.199,0.069,0.366,0.12,0.562,0.186zm0.469-53.7c4-4.71,8.7-8.57,13.4-10.8,0.116-0.159,0.26-0.308,0.375-0.469-6.56,1.9-13.4,6.46-19.9,13.1,2.09-0.416,4.13-1.06,6.09-1.88zm17.2-16.7c-0.422,0.063-0.781,0.132-1.22,0.186-0.454,0.398-0.858,0.838-1.31,1.22,0.867-0.448,1.68-0.916,2.53-1.41zm-57.2,19.7c17.1,7.51,25.2,25.2,25.3,43.7-0.355-0.824-0.815-1.65-1.31-2.44-5.26-58-86.1-45.8-92.1,4.22,2.98,19.5-18.1,21.6-31.5,23.6,7.94-2.4,16.5-4.82,22-7.87-3.99-9.17,0.153-20.6,8.44-31.3-16.1,10.4-33.4,18.6-51,26.3,1.87-0.678,3.76-1.2,5.62-1.69-7.27,2.85-12.7,8.77-15.2,15.5,7.55-7.52,31.8-7.8,39.5-13.7-2.52-1.23-5.01-2.13-7.41-2.72,2.57,0.51,4.99,1.45,7.41,2.72h0.0936c2.23-1.73,3.05-4,1.59-7.03,29.8,19.2-15.7,12.5-27.5,15.5-2.32,5.97-2.96,10.9-2.44,14.9,0.024-2.88,3.52-5.08,8.53-7.12-0.437,0.941-0.039,2.22,1.41,3.84,22.3,12.5,31.8,3.14,39.7-10.7-4.33,5.33-10.6,9.05-20.4,9.28-5.84,0.381-9.45,0.671-12.1,0.938,11.4-1.83,40.8-8.83,34.9-27.9,3.4-32.1,36.2-46.6,60.4-40.3-19.4-3-42.8,12.6-7.87,14.2,57.3,18.7-71.1,30.6-36.8,72-12.3-3.01-24.9-5.02-36.6-6.28,21.9-6.18,47.9-35.6,43.9-43.9-0.471,0.38-0.828,0.675-1.41,1.12-8.97,3.51-4.58,0.03-0.0936-2.62-1.52-0.833-4.03-0.963-7.69-0.093-6.59,23.2-22.5,48-54.1,41.7,0.396,1,2.26,1.77,5.06,2.53-0.841-0.054-1.71-0.144-2.53-0.186,3.65,2.32,7.95,2.88,12.6,2.25,16.6,2.84,42.5,6.13,54.5,16.1,3.5-1.06,6.66-1.64,9.56-1.97,2.12,0.948,4.44,1.38,6.84,1.5-1.25-0.591-2.55-1.13-3.84-1.69,3.73-0.12,6.99,0.273,9.75,1.31,20.6-3.72,45.3-30.1,42.3-52.6,8.33-25.9-6.81-44-27.5-51.2zm-14.8,104c-2.01,0.363-4.01,0.47-5.91,0.375,6.72,3.18,12.7,6.9,17.5,11.2-2.55-5.33-6.2-9.49-11.6-11.5zm-37.8-61.6c0.009-0.03-0.009-0.066,0-0.093-0.129,0.081-0.244,0.105-0.375,0.186,0.135-0.033,0.243-0.063,0.375-0.093zm0-0.093c22.2-13.8,13.5,6.97,7.03,15.7,0.978-1.14,2.22-2.3,3.56-3.38,0.47,4.2,3.09,1.33,5.16-3.56,16.9-10.4,44.5-17.8,29.2-23,5.15,2.57-14.6,8.74-27.8,18.8,2.53-8.87,1.98-19.7-12.1-13.4,5.18-4.31,11.6-6.99,20.2-6.84,8.88-0.057,14.4,0.195,17.5,0.75-3.09-0.81-7.22-1.55-12.9-2.25-29.6-8.99-32.3,10.8-39.1,28,3.08-5.75,6.39-11.4,10.6-16-0.385,1.68-0.829,3.36-1.31,5.06zm-9.28,11c-2.32,4.32-4.54,8.66-6.84,12.7,2.97-3.65,5.04-8.07,6.84-12.7zm17-10.8c0.671,0.368,1.2,0.865,1.5,1.5,6.98-5.63,2.78-4.02-1.5-1.5zm-24.2-12.4c0.248-0.159,0.503-0.308,0.75-0.469,0.0771-0.294,0.199-0.555,0.281-0.844-0.349,0.432-0.696,0.878-1.03,1.31zm1.03-1.31c12.2-15,32.4-28.5,50.5-32.1-17.4-0.9-35.3,5.3-45,20,0.175-1.19,0.422-2.3,0.656-3.38-32.1,34.3-87.9,39.7-125,69.9,0.441,1.17,1.02,2.1,1.69,2.81,35.4-28.4,84.2-33.3,119-62.9-0.77,1.78-1.41,3.66-1.97,5.62zm-117,57.3c-0.397,0.317-0.825,0.614-1.22,0.938,0.466-0.252,0.939-0.499,1.41-0.75-0.0606-0.06-0.129-0.123-0.188-0.186zm0.188,0.186c1.09,1.07,2.44,1.59,4.03,1.69-19.9,8.54-38,23.9-44.6,41.2,16.5-25.2,70.8-65.4,95.3-35.9-0.362-2.69-0.554-5.39-0.562-7.97-9.83-5.31-22.9-5.53-36.3-2.16,10.2-5.71,23-15.2,36.3-21.9-18.4,7.93-36.7,15.7-54.2,25.1zm54.2-25.1c3.32-1.44,6.63-2.95,9.94-4.41-3.32,1.24-6.64,2.73-9.94,4.41zm0.562,32.1c0.437,3.25,1.16,6.58,2.06,9.84,0.176-1.92,0.443-3.84,0.844-5.81-0.91-1.47-1.89-2.81-2.91-4.03zm2.06,9.84c-0.245,2.67-0.254,5.26-0.0936,7.78-3.16-9.68-7.19-18.3-11.5-21.4-7.34-1.97-14.6-2.31-21.7-1.41,3.2,0.465,6.33,1.65,9.28,3.38,0.413,0,0.806-0.039,1.22,0-0.0978,0.102-0.332,0.252-0.469,0.375,18,11.1,30.3,41.4,26.2,43.6-29.3-36.8-50.2-4.57-68.9,23.4,13.9-19.2,37.9-34.8,52.3-16.8,0.537,1.15,1,2,1.5,3-17.2-18.9-45.1,5.71-56.2,28-5.52,5.55-8.02,9.95-8.53,13.2-0.371-6.58,2.97-15.4,8.44-23.8-4.79,7.13-9.51,13.7-14.2,18.6-5.42,25.8,8.03,21.3,23.2,15.7-9.07,1.14-14.2-1.27-16.3-5.72,4.29,4.87,18.7,2.19,28.2-8.06,11.5-0.455,18.7,2.22,22.5,6.47-7.3-12.5-22.5-18.5-39.8,1.78-3.42-0.753-5-3.17-5.16-6.56,3.6-5.3,8.15-8.4,13.1-9.75-10.3,8.75,0.797,3.46,14.9,0.469-4.96-1.44-10.1-1.74-14.8-0.469,1.66-1.41,3.64-3.05,6.47-5.25,0.904-5.77,2.28-10.1,4.03-13.1-8.9,5.93-17.3,15.6-23.7,27.6-0.002-17.4,34.7-58,53.2-35.6,0.795,1.84,1.63,3.4,2.44,4.88-5.79-3.24-12.1-4.02-18.4-2.72,12,3.35,26.7,21,34.1,31.2,13.6,5.34,37.1-27.2,63.9-17.7,47.2-7.19-11.8,6.84-30.5,4.97-1.37,2.72-2.73,5.15-4.12,7.22,20.5-7.57,46.8-3.01,61.9-15.1-28.1-12.4-60.4,2.77-87.2,19.3-2.51-6.92-5.47-12.5-8.72-17,13.7,2.95,30-21.1,51.2-19.9,10.1,0.68,14.5,0.939,15.2,1.03-3.35,0.328-51.9,1.32-53.4,26.2,11-10.1,49.8-11.6,68.2-19.7-32-28.5,12.9-1.58,27.7,4.69-4.61-3.24-9.06-6.84-13.5-10.2,9.61,4.28,20,4.75,26.1-5.16-25.6-26,15.1-12.2,2.53,9.47,0.497,3.73,1.08,6.45,1.69,8.72,0.015-7.44,6.6-17.2,7.03-23.6-13.4-16.7-33.8-10-4.03-17.3-33.3-5.46-64.5-23.8-99.9-25.3-9.77-4.55-14.3-8.17-15.4-11.2,3.1,14.5,23.7,17.2,44.8,20.2-14.7,3.59-29.9,17.9-29.2,24.2,4.48-2.07,11.4-4.67,12.5-6,22.1-30.3,12.2-2.68-8.81,8.34-0.774,0.105-1.05,0.114-1.69,0.186,2.06,0.871,5.77,0.771,11.6-0.844,15.8-26.1,15.6-13.7,5.62-2.81,2.93-1.69,5.87-3.29,8.81-4.78-10.4,18.1-21.5,21.4-31,16.8,1.44-0.613,2.88-1.27,4.31-1.97-4.17,0.338-7.3-0.207-9.56-1.41-1.37-1.13-2.67-2.51-3.94-3.94-6.11-11.4,9.23-35.3,3.09-16.8,5.71,5.82,16.8,5.24,13.4-5.25-0.327,2.09-2.72,4.13-5.06,5.81-4.43-17.4-17-3.34-16,10.1-3.8-5.87-6.82-12.8-8.81-20.1zm26.9,31.5c0.448-0.036,0.839-0.036,1.31-0.093,6.9-1.22,12.5-5.49,16.6-9.94-5.96,3.44-11.9,7.09-17.9,10zm0.656-6.38c-1.23-0.519-1.84-1.41-1.97-2.53-4.36,2.02-5.99,3.43,1.97,2.53zm3.09,48.1c-6.41,2.37-12.3,5.92-17.1,11.5,5.82-0.132,11.5-3.34,17.1-11.5zm-17.1,11.5c-15.1,0.346-30.9-20.7-45.7-33.7-4.4,3.3,0.161,10.8,6.56,20-5.26-0.543-11.1,0.153-16.6,1.31,21.1,6.12,39.7,33,16.8,47.9,8.54-4.65,16.3-10.2,17.9-17.2,0.764,3.32,0.992,6.48,0.188,9.47,4.77-12.4,2.72-27.9-8.91-40.6-9.43-9.36-13.5-13.4-14.1-14.2,1.61,1.08,28.6,26.5,39.1,34,1.42-2.6,2.96-4.91,4.69-6.94zm-38.9,35.4c-0.917,0.5-1.89,0.924-2.81,1.41h0.469c0.836-0.461,1.6-0.919,2.34-1.41zm-2.81,1.41c-0.299,0.03-0.551,0.159-0.844,0.186,8.28-6,9.91-17.5,7.12-27.6,0.766,11.9-13,27.1-32.7,28.1-5.03,10.7-2.37,20.2,4.87,28h5.25c-7.71-6.92-11.9-15.6-9.66-25.7,2.32,0.525,4.51,0.832,6.56,1.03-7.36,3.43-6.22,8.35-0.938,13.8-6.03-6.01,7.24-11.1,20.3-17.9zm-20.3,17.9c3.43,3.53,8.59,7.25,14.3,10.9h8.91c-2.35-1.22-4.72-2.37-7.12-3.47-8.82-2.66-13.9-5.14-16.1-7.41zm26.6-45.3c-0.186-2.9-1.26-5.6-3.28-7.88,1.42,2.44,2.51,5.08,3.28,7.88zm-37.7-0.562c0.482-0.06,0.901-0.108,1.41-0.186,0.194-0.204,0.367-0.367,0.562-0.562-0.659,0.246-1.31,0.505-1.97,0.75zm1.97-0.75c13.5-5.05,27.7-10,30.7,5.25-1.52,0.935-4.29,2.46-7.5,4.12,9.55-36.5-61.4,40.3-64-6.75-0.413,2.6-0.484,4.86-0.375,6.84-0.173-0.44-0.392-0.875-0.562-1.31v17.5c0.173,0.423,0.381,0.812,0.562,1.22-0.182-0.328-0.381-0.597-0.562-0.938v6.19c20.6,25.1,12.7,7.12,4.03-13.9,8.91,8.11,32.2-3.56,42.2-10.8,5.61-0.992,9.43-1.71,11.9-2.25-9.88,2.92-36.7,12.9-36.9,32.9,1.83,6.57,5.14,12.8,9.66,18.5-11.2-21.5,12.1-59.1,28.7-44.4-17.3,9.4-41.7,25.7-23.2,45.3h9.66c-15.5-12.6-18.5-26.8,13.2-36.6,35.8-11.6,5.78-44.3-17.4-20.9zm34.2-104c-0.242-0.15-0.506-0.234-0.75-0.375-1.78-0.03-3.56,0.231-5.34,0.75,2.2-0.408,3.95-0.313,5.16,0.469,0.427-0.34,0.661-0.593,0.938-0.844zm-0.938,0.844c-6.31,5.02-28.2,19.5-43.4,36.4,9.97-12.4,23.9-32.7,38.2-36.8-11.2,2.08-33.1,18.1-43,32.2,0.407-4.91-1.74-6.75-8.91,11.2,1.52,5.62,5.09,3.35,10.1-2.34-5.03,6.22-9.03,12.7-10.8,19,11.7,15,23.2-22.6,40.6-39.6-7.87,4.24-15.1,9.92-17.3,16.4-36.6,56.9,4.79-33.2,36-30.1,0.72-3.37,0.0354-5.38-1.5-6.38zm-17.2,20.1c5.24-2.82,10.7-5.02,15.2-6.38,0.399-0.416,1.09-1.11,1.31-1.31-6.07-0.237-11.5,2.87-16.5,7.69zm15.2-6.38c-1.87,1.95-5.67,6.25-10.5,11.6,1.18-0.97,2.36-1.87,3.66-2.72,23.2-10.4,18.3-12.4,6.84-8.91zm-7.12-18.3c-5.04-0.733-10.2,0.423-15.6,4.12,5.03-2.05,10.2-3.44,15.6-4.12zm99.7-74.7c1.92-2.05,3.79-4.21,5.53-6.47-1.97,2.39-3.72,4.07-5.34,5.34-0.0864,0.355-0.108,0.758-0.188,1.12zm-91-5.81c6.51-3.58,13.8-4.91,22.5-2.16,0.595,0.902,1.26,1.72,1.97,2.53-12.6-4.82-25.9-2.61-22.6,15.6,21.7-3.78,25.2-0.734,21.8,5.72-12.2-14.9-37.2,27.3-51.7,38.3-3.64,4.85-7.36,8.48-11.1,11.2,18.8-13.3,35.2-34.8,50.1-47.3-2.39,15.7-47.1,49.2-85.6,73.6v8.25c0.328-0.597,0.601-1.19,0.938-1.78-0.237,1.64-0.534,3.39-0.938,5.25v10.3c0.161-0.186,0.304-0.38,0.469-0.562,22.8-46.3,67.6-60.7,97.4-96.6-2.18,3.82-6.46,8.75-10.9,14.2,3.79-2.59,8.68-4.47,11.7-6.37,3.03-1.58,5.3-2.96,7.22-4.31-0.379,3.85-1.56,7.65-3.84,11,20.1-7.37,19.1-18.8,10.9-27.4,15.3,5.46,31.8,1.25,17.3-11.4,1.18,29-31.9-11.6-47-7.97-2.77,3.52-5.74,6.82-8.81,10zm55.8-2.06c-0.015-0.38,0.027-0.722,0-1.12-0.114,0.285-0.254,0.484-0.375,0.75,0.132,0.111,0.248,0.264,0.375,0.375zm-0.375-0.375c-0.43-0.368-0.83-0.744-1.31-1.12-7.69,2.2-26.1-4.56-45.4-10.4,19.4,8.06,39.3,27.8,46.7,11.5zm-27.8,39.2c-0.423,0.156-0.777,0.317-1.22,0.469-5.77,3.51-11.9,6.45-17.7,9.84,9.3-1.27,15.4-5.21,18.9-10.3zm-18.9,10.3c-2.35,0.736-1.88-1.92-1.59-3.47-1.78,2.48-3.47,4.98-4.78,7.5,2.07-1.46,4.19-2.76,6.38-4.03zm-1.59-3.47c1.76-2.45,3.55-4.81,5.44-7.12-2.75,1.88-4.87,4.14-5.44,7.12zm-21.1-16.5c1.07,0.159,1.99,0.472,2.81,1.03,0.428-0.987,0.254-1.8-0.75-2.25-0.674,0.392-1.38,0.823-2.06,1.22zm2.81,1.03c-3.27,7.53-44.3,28.2-63.3,26.9v1.59c9.9-1.05,20.1-1.87,29.6-3.84-4.33,1.79-8.47,3.99-11.5,6.37-0.938,7.68-11.3,6.16-18.1,6.84v0.938c2.61,5.89,18.4,2.8,29-9.09,12.1-5.03,17.1-7.14,17.8-7.31-1.69,1.18-28.9,14.6-36.2,26.4-0.154,0.111-0.314,0.18-0.469,0.282-3.35-0.374-6.71-1.01-10.1-1.87v7.22c11.7,1.14,22.4-2.91,32.5-9.47-6.75,3.95-13.6,4.85-20.6,4.31,9.34-4.52,17.1-12.5,25.5-18.4,21.7-10.3,17.7-12.8,7.41-10.9,8.14-3.6,15.3-9.1,20.6-17.7-0.554-1.02-1.33-1.78-2.16-2.34zm-45.8-20.2c0.222,1.61,0.392,3.21,0.656,4.78,3.82,4.79,8.42,6.03,12.9,5.34-4.75-1.79-9.47-5.41-13.6-10.1zm13.6,10.1c10.7,4.03,21.5-1.2,26.1-23.8-2.02,3.58-4.1,6.35-6.19,8.53-0.972,3.57-10.3,13.8-19.9,15.3zm19.9-15.3c0.634-2.33-2.31-1.64-11,6,3.56-0.291,7.29-2.17,11-6zm47.4-56.9c5.92,9.71,13.9,15.5,15.7,1.12-0.554-0.424-0.904-0.73-1.41-1.12h-3.09c5.41,7.6-2.91,6.51-9.09,0zm26.4,0c-1.28,3.61,3.25,8.85,16.4,10.1,29.9-11.1,19.9-4.91,0.188-5.25,5.29-0.676,11.9-2.18,18-4.88h-6.94c-1.46,1.03-3.02,1.81-4.88,2.16-1.29-0.86-2.54-1.51-3.75-2.16zm98.6,0c4.03,4.59,9.57,5.65,14,3.09-4.13,0.06-8.49-1.1-12.4-3.09zm14,3.09c3.61-0.051,7.01-1,9.66-3.09h-6.28c-0.994,1.31-2.12,2.36-3.38,3.09zm49.1-3.09c0.302,2.47,0.237,4.71-0.281,6.47,0.988-2.04,1.87-4.16,2.53-6.47h-2.25zm-72.1,9.28c2.88,2.24,6.76,3.74,11.8,4.12,5.8,2.44,10.5,2.39,14.2,0.562-0.288,0.596-0.528,1.22-0.75,1.88-11.6,2.58-19.8-0.47-25.3-6.56zm-214,4.22,0,7.22c2.53-2.73,2.42-5.62,0-7.22zm32.9,1.12c2.29,4.12,5.38,7.64,9.09,10.7-0.0756,0.627-0.143,1.28-0.188,1.97,1.17,0.18,2.24,0.27,3.28,0.375,3.3,2.27,6.98,4.17,11,5.81-4.28-0.625-8.34-0.897-12.1-0.75-12.4-21.9-23.8-15.8-18,11.4,0.0804,0.399,0.197,0.652,0.281,1.03-2.68-1.32-5.23-0.906-4.78,3.75-6.56-13.4-5.69-31.9,11.4-34.3zm25.4,6.38c-0.565,0.602-3.45,1.19-10.5,1.69-3.16-5.52,7.69-3.16,10.5-1.69zm203-1.5c3.1,0,1.97,3-11,10-1.49,0.18-2.99,0.382-4.5,0.469,3.04-6.52,11.9-10.5,15.5-10.5zm-234,5.44c1.73-0.42,12.4,14.7,27.7,14.8-10,4.26-22.6,25.6-22.7,2.34-4.38-12.6-5.86-16.9-4.97-17.2zm151,2.06c0.16,0.03,0.309,0.063,0.469,0.093h-0.656c0.06-0.039,0.128-0.054,0.188-0.093zm-10.5,0.469c-3.22,1.32-6.48,2.45-9.75,3.47,2.71-1.63,5.94-2.79,9.75-3.47zm16.8,3.75c1.46,0,2.91,0.063,4.5,0.186,5.19,1.71,10.5,3.41,15.7,5.06-18-3.65-34.4-2.79-44.2,17.5-0.577-1.4-1.16-2.46-1.69-3.47,0.27,1.8,0.108,4.39-0.844,7.97-7.44-6.44-3.74-12.2-1.03-11.2-1.07-1.33-1.92-1.81-2.62-1.59,6-8.4,14.6-14.6,30.1-14.5zm-185,8.34,0,22.2c5.76,13,9.73,17,12,15.7-4.01-3.03-10.2-12.6-9.84-24.4-0.105-5.71-0.846-10.1-2.16-13.5zm12,37.9c2.84,2.14,4.46,0.939,2.06-5.06-0.298,2.65-0.969,4.44-2.06,5.06zm274-35.4c2.49,0.195,4.91,3.24,6.94,11-0.449,4.31-0.3,8.16,0.0936,11.6-2.45-7.15-8.77-10.6-20.1-4.69,3.5-8.52,8.38-18.3,13-17.9zm-128,5.34c0.546,0.687,1.06,1.71,1.69,2.91-0.303-1.6-0.922-2.57-1.69-2.91zm-130,0.656c0.259,0.907,0.56,1.86,0.844,2.62-0.145,0.329-0.257,0.63-0.469,1.03-6.04,1.13-2.6-2.82-0.375-3.66zm188,6.56c23.9,1.05,36.5,49.1,12,70.7,31.1-38.5-49.7-35.7-47.2,5.62,0.499-1.45,1.09-2.9,1.78-4.31,0.138,0.874,0.389,1.82,0.75,3,2.96,0.527,4.85,0.441,6,0-0.114,0.448-0.198,0.851-0.281,1.31,1.03,5.27,2.75,9.38,4.97,12.5-0.0609-5.14,2.86-12.8,5.53-18.7-11.5,48.5,42.3-55.2,16.2-1.41-10.8,30.2,18.9,15,32.9-6.28-7.01,16-20.7,28.3-40.1,28.5-2.67,1.41-4.81,2.3-6.66,2.81-1.77-0.718-3.51-1.5-5.34-2.16,1.08,1.03,2.14,1.84,3.38,2.53-3.38,0.434-5.05-0.887-5.62-3.28-4.86-1.66-9.85-3.11-15-4.41-0.0465-1.24-0.0429-2.51,0.0936-3.75l-2.16-1.31-2.91-3.38c-10.1-42.1,96.2-35.3,54-63.9-18.8-17.8-20.8,3.11-30.5-6.38,6.41-5.67,12.6-7.93,18.1-7.69zm-36.6,82.7,2.81,1.69c-0.822-2.82-1.25-5.54-1.41-8.06-0.723,2.11-1.17,4.22-1.41,6.38zm14.9,8.16c0.745,0.255,1.51,0.486,2.25,0.75-0.875-0.829-1.77-1.75-2.53-2.81,0.009,0.759,0.129,1.43,0.281,2.06zm-101-90.3c5.31,0.294,9.88,5.14,12.4,11.6-5.16-1.31-12-1.8-18.4-1.59,0.279-1.78-1.16-4.36-3-6,3.03-3.01,6.12-4.19,9-4.03zm112,3.94c-2.75,0.505-3.08,7.91,3.37,2.53-1.3-2.09-2.46-2.7-3.37-2.53zm-122,0.75c0.881-0.129,1.48,0.774,0.938,3.75-2.76,1.45-3.93,1.4-4.22,0.75,1.09-1.74,2.16-3.29,3.28-4.5zm151,0.186c9.98,6.99,16.2,19.3,13.5,37.4,5.3,24.5-49.6,60.3-26.1,18.6,11.7-45.3-30.8,40.9-19,11.8,21-22.5-5.61-17.9-12.7-1.31-0.828-1.95-3.26-3.97-5.25-4.41,16.7-25.8,61.2-40,34.9,8.91,3.49,10.1,41.2-37.4,20.6-59.4-0.861-5.11-3.03-8.83-5.91-11.5zm66.6,22.1c-2.06,0.65-3.82,3.62,0,6.47zm0,16.1c-2.68,0.836-5.35,1.7-8.06,2.44,2.75-0.461,5.45-0.86,8.06-1.03zm-8.16,2.44c-4.86,0.821-9.68,1.97-13.7,3.19,4.6-0.96,9.16-1.96,13.7-3.19zm-13.7,3.19c-7.54,1.58-15.2,2.88-22.8,3.75,6.67,2.31,13.3,3.43,20,3.75-27.8,8.62-54,34-12.7,44.4,2.7,0.393,4.85,0.526,6.66,0.469-7.01,7.19-16.6,14.4-22.7,23.4,0.372-2.1,0.724-4.14,0.938-6.19-5.54-38.4-10.3-14-13,9.47,0.127-3.24,0.006-6.21-0.469-8.53-2.19-4.55-5.51-8.61-9.66-12.3,5.21,11,5.66,27.2,6.47,41.8,1.08-3.21,1.96-7.06,2.62-11.1-0.473,4.75-0.961,9.1-1.22,12.2,1.37-0.866,2.61-1.84,3.75-2.91-2.54-7.95,1.41-15.8,3.75-23.2-1.76-39.1,6.75-12.4,2.72,8.81-0.592,1.69-1.05,3.43-1.31,5.25-0.902,2.83-2.1,5.44-3.66,7.59,1.26-1.39,2.4-2.9,3.38-4.5-0.0921,3.11,0.334,6.4,1.41,9.94-3.1,4.37-6.82,6.42-10.9,6.94,0.0552,0.614,0.126,1.27,0.188,1.88-2.43-0.464-4.36-1.2-5.81-2.06-6.45-1.18-13.5-5.25-20.6-10.2,3.06,4.69,5.94,8.3,8.72,11-8.41-4.23-17.7-7.1-27.6,0.186-26.5,6.56-106,45.6-51.3,68.8-0.833-2.77-2.63-5.95-5.25-8.91,20.3,5.23,9.73,17.9-3,18.1,12.8,4.04,22.2,3.75,13-17.3-36.3-19.8,6.45-4.81,14.5,14.5,9.03-24.7,10.1,2.48-1.88,11h6.94c5.53-2.45,10.5-5.9,13.6-10.7-2.52-4.77-2.69-10.4-4.22-15.6-34.7-20.9,0.295-11.9,7.31,5.72,0.0735-1.8-0.0699-3.68-0.469-5.72,7.17-17.4-6.67-21.3-17.7-24.4,11.7-0.546,13.4-6.32,10.4-10-0.506,0.716-2.2,2.17-5.81,4.59-25.7,9.1,0.702-4.59,5.34-5.16-3.78-3.86-12.7-4.78-19.3,7.31-2.83-1.73-3.4-4.14,0.375-8.34-8.65,8.2-8.86,19.2,16.4,16-62.7,11.9,5.85-43.9,34.6-38.2,31.2,30.7,51.2-4.22,63.4-32.2,13.2,0.838,15.8,10.3,15,23,0.311-0.567,0.672-1.16,1.03-1.69,18.2-36.7-28.6-36.6-30-1.59-6.21,21.1-14.1,21.1-23.4,16.9,15.4,0.532,25-29.7,29.3-49.2,25,1.66,44.5-46.2,7.59-34.2,4.69,1.66,7.5,3.44,9,5.25-3.15-4.79-5.1-7.44,6.19-0.469-0.18,2.48-1.08,4.89-2.44,7.22-0.678-1.74-1.75-3.39-2.81-5.06,4.01,9.67-28,17.4-24.6-4.31,0.434-1.04,0.924-1.94,1.41-2.91,2.68,10.4,15,20.7,17.1,10.8-18.7,4.6-10.4-19.9,1.03-25.6-0.189-0.03-0.373-0.072-0.562-0.093-1.84-0.03-3.45,0.123-4.97,0.282,10.3-7.14,23.8-9.29,37.9-10.8v-1.59c-0.248-0.03-0.51-0.069-0.75-0.093,0.248-0.057,0.502-0.129,0.75-0.186v-2.81c-3.95,0.818-7.68,1.01-11.1,0.282-27.8,5.47-23.3,1.34-10.8-2.44zm-10.5,17.4c3.85,0.476,7.68,1.29,11.4,2.25-3.58-3.95-7.68-4.11-11.4-2.25zm11.4,2.25c1.68,1.85,3.23,4.48,4.59,8.16,5.63,2.84,11.1,4.45,16.3,4.97v-7.22c-1.03-0.261-2.06-0.558-3.09-0.844-1.15-2.41-0.901-5.52,1.78-8.44-3.84,0.633-5.89,2.51-3.19,8.06-5.38-1.52-10.8-3.26-16.4-4.69zm-12.5,23.3c0.959-0.237,1.99-0.447,3.09-0.844-1.56-0.981-2.88-1.93-4.03-2.81,0.391,0.679,0.743,1.32,1.22,2.06-0.0459,0.599-0.181,1.1-0.281,1.59zm-0.938-3.66c-1.6-2.78-2.55-5.05-2.91-6.84-0.352-1.77-0.219-3.12,0.375-4.03-4.13,1.78-4.61,5.39,2.53,10.9zm-2.53-10.9c1.74-0.752,4.14-1.11,6.84-1.22-3.11-0.758-5.72-0.507-6.84,1.22zm6.84-1.22c10.7,2.61,27.7,17.7,14.3,30-3.11,1.85-6.12,3.61-9,5.25-2.4,0.664-4.61,1.34-6.28,1.97,1.48-0.325,2.99-0.686,4.69-1.03-2.87,1.61-5.6,3.05-8.16,4.41-0.987-0.192-1.61-0.368-2.06-0.562-7.18,5.64,18,7.19,30.1-4.41-18.2,38-18.8,86.2,6.37,120v-5.72c-23.6-35.3-20.4-84.4,0-122v-8.25c-0.842,0.533-1.6,1.07-2.44,1.59,7.77-15-14-22.5-27.6-21.9zm-6.47,40c1.07-0.841,2.87-1.82,5.53-2.81-4.58,1.01-7.58,1.94-5.53,2.81zm14.7,35.1c-3.39,6.19-3.81,14.4-2.91,23.1,1.16-8.11,2.49-16.1,2.91-23.1zm-2.91,23.1c-2.74,19.1-4.14,38.9,12.3,47.8,3.87,3.46-9.78-23.8-12.3-47.8zm-108,9.47c0.171,0.174,0.32,0.376,0.469,0.562,0.341-0.483,0.154-0.638-0.469-0.562zm5.16,50.5c0.624,1.18,1.38,2.34,2.34,3.37,2.45-4.64,2.32-9.12,0.75-13.1-0.169,3.73-1.31,6.97-3.09,9.75zm-38-6.66c0.018,0.06-0.018,0.129,0,0.186h0.469c-0.166-0.069-0.305-0.117-0.469-0.186zm0,0.186c-43.3,3.38-15.8-51.5,10.2-56.7,5.75-14.5-50.2,18-51.9,40.2,7.15-10.1,19-20.2,30.7-30.8,60.3-34.5-58.1,26.8-6.84,46.9,15.3,11.8,20,7.68,17.9,0.469zm-41.7-16.5c-0.306,0.431-0.555,0.881-0.844,1.31,0.268-0.087,0.473-0.195,0.75-0.282,0.00045-0.332,0.0678-0.694,0.0936-1.03zm-0.844,1.31c-1.45,0.473-2.72,0.899-3.94,1.41,0.608-0.909,1.17-1.85,1.69-2.81-0.726,1.14-1.71,2.24-2.81,3.28-3.21,1.45-5.6,3.01-7.22,4.69-1.83,0.862-3.78,1.71-6.09,2.44-17.1,1.2-21,4.02-18.5,7.78,8.34,0.539,15.7-1.24,21.7-4.78-0.96,6.22,4.64,13.3,11.6,20.3h3.84c-9.25-11-7.54-21.6-0.375-32.3zm-36.8,16.8h-0.375c0.787,1.81,3.32,3.48,6.66,5.16-2.9-1.89-5.21-3.58-6.28-5.16zm170-71.5c1.94,0.356,3.82,0.416,5.62,0.186-0.263-2.92-0.388-5.95-0.562-9.09-2.75,8.16-6.51,11.7-9.28,1.41,0.015,3.04,1.13,5.67,4.22,7.5zm11.7-12.2c-0.476,0.522-0.98,1.01-1.5,1.5,0.021,0.066,0.0717,0.12,0.0936,0.186,0.49-0.525,0.973-1.09,1.41-1.69zm-140-83.8c-2.17,2.22-2.86,5.01-1.31,8.81-0.124-2.97,0.275-5.95,1.31-8.81zm-1.31,8.81c0.392,9.44,7,18.6,22.7,21.9,4.8,0.764,7.52,1.9,8.91,3.19-3.67-7.3-11.9-14.8-23.7-14.5-4.24-4.18-6.69-7.68-7.88-10.6zm31.6,25.1c0.482,0.958,0.895,1.88,1.22,2.81,0.126-0.969-0.28-1.94-1.22-2.81zm74.1-33.6c-0.198,0.392-1.05,1.98-1.5,2.81,0.609-1.17,1.22-2.34,1.5-2.81zm97.6,1.97c-0.328,0.294-0.567,0.64-0.844,0.938,0.296-0.048,0.623-0.06,0.938-0.093-0.0531-0.276-0.0885-0.539-0.0936-0.844zm0.0936,0.844c0.0627,0.324,0.156,0.655,0.281,0.938v-0.938h-0.281zm-114,4.59c0.716-0.186,1.12,0.386,0.188,2.72-5.01,1.9-1.76-2.31-0.188-2.72zm-136,14.5c-12,5.08-22.8,13.7-31.4,24.3,1.1,1.24-1.2,11.6-4.22,22.4,5.73-14.5,15.4-33.5,26.2-36.8,3.1-4.27,6.27-7.53,9.37-9.84zm-35.6,46.7c-4.88,12.3-6.9,21.4-4.41,14.5,1.47-4.37,3.01-9.51,4.41-14.5zm4.22-22.4c-0.567-0.636-2,1.15-4.69,6.47,1.5-2.22,3.01-4.39,4.69-6.47zm153-12.6c9.23,1.87,17.6,4.42,23.4,9,42.8,10.5-6.45,7.32-21-6.66-0.758-0.946-1.58-1.64-2.44-2.34zm4.22,8.62c8.81-0.15,17.8,3.2,27.3,12.7,40.3,41.1-55.7-3.79-22.5,4.97,48.2,26,12.4-16.4-14.5-16.1,3.22-0.895,6.48-1.44,9.75-1.5zm124,3.66c-1.04,4.78-2.65,10.4-4.31,16.3,1.28-2.13,2.69-4.12,4.31-6zm-4.31,16.3c-5.95,9.94-8.25,22.4-8.25,35.2,1.96-12.4,5.27-24.5,8.25-35.2zm-8.25,35.2c-3.35,21.2-2.45,43.2,12.5,59.9,0.0324,0.039,0.0612,0.054,0.0936,0.093v-6.19c-6.67-12.5-12.6-33.5-12.6-53.8zm-225-50c-4.05,3.38-7.39,7.45-10.5,11.8,3.9-4.31,7.32-8.27,10.5-11.8zm-10.5,11.8c-13.1,14.5-28.8,31.4-39.4,41.2,20.6-5.36,28-25.3,39.4-41.2zm114-9.66c20.6-0.468,49,19.8,26.5,13.3-28.5-18-27.3-8.63-16.5,1.5-6.66-3.52-12.1-4.18-15.4,1.12,35.6,29.5-12.7,11.4-28.4,20.4-42.3,27.2,9.38-20.9,31.9-6.38,2.22-26.6-42.8,2-63.2,8.34-0.113,0.559-0.282,1.13-0.469,1.69-0.521-0.291-0.941-0.695-1.41-1.03,0.576-0.15,1.25-0.462,1.88-0.656,1.06-5.24-1.01-10.5-4.31-15.1,1.78,6.8,1.51,12.7-0.844,12.7,0.895,1.15,1.96,2.2,3.19,3.09-1.25,0.323-2.39,0.487-3.38,0.562-0.618-1.79-1.28-3.34-1.97-4.88,0.851,0.814,1.57,1.21,2.16,1.22-3.35-4.31-4.72-10.1-6.56-15.1-27.1-20.4-3.31-12.4,7.41,2.44-1.32-5.05-3.78-10.5-7.22-14.6,3.84,1.82,7.58,4.03,10.6,6.56,8.04,24.7,8.18,11,4.12-7.78,8.4,15.7,27,21,46,1.69,3.01-6.54,8.97-8.94,15.8-9.09zm-152,3.37c-6.24,9.33-10.9,19.7-13.2,30.5v29.8c0.575,1.79,1.25,4.8,2.06,9.94,2.71,3.82,4.88,6.65,6.56,8.53-0.623-1.32-1.2-2.43-1.59-3-4.43-26.4-0.0972-11.6,6.56,1.5-1.37-13.3-14.4-52.5-6.19-64.6,2.34-5.43,4.3-9.63,5.81-12.7zm0.375,77.2c0.509,4.96-0.439,6.54-4.88,1.59,2.25,4.75,5.91,12.2,11,8.25-2.1-2.5-4.21-6.13-6.09-9.84zm284-63.7c-1,0.488-1.1,3.14,1.41,9.56,0.523-0.099,0.924-0.297,1.31-0.469v-7.69c-0.953-1.05-2.06-1.73-2.72-1.41zm-297,1.41,0,7.69c3.42-1.52,1.99-5.51,0-7.69zm270,0.562c-7.57-0.784-22.9,32.5-29.2,41.9-35.6-5.59-47.9,44.3-35.2,72.4h8.91c-1.41-3.61-2.24-7.43-2.44-10.8-1-6.12-0.954-10.9-0.281-14.4-3.04,6.32-4.9,14.4-3.94,21.6-4.62-14.9-2.82-34.7,1.78-47,1.92-1.35,3.99-2.77,6.19-4.12-0.0525,8.3,22.8,19.8,18.3,39.9-2.77-22.3-10.5-24.5-17-18.3,2.04-0.527,4.33,0.367,6.38,2.44-14.4,11.2-10.2,22.6-1.12,28.9-2.91-4.39-4.59-11.1-3.56-20.2,1.22,28.7,18.3,18.2,24.9,1.78,1.87,9.44,0.412,16.1-2.62,20.2h6.28c0.897-0.709,1.73-1.56,2.44-2.53-0.297,0.873-0.694,1.71-1.03,2.53h2.62c9.16-24.6,2.53-65.4,8.34-14.8,5.08,9.32,8.67,12.9,10.9,13-1.69,0.614-3.61,1.23-5.53,1.78h9.84c1.03-1.55,1.86-3.35,2.34-5.44-1.29,1.24-3.08,2.24-5.16,3.09,3.13-3.36,0.764-19.6-5.25-30.6,2.15-31.4-14.5-20.3-20.9-3.28-0.788-5.04-3.24-9.63-8.16-12.9,11-3.41,28.5-13.8,28.1-27.5-2.46,6.26-9,10.7-16,14.1,4.98-6.45,8.24-15.5,10.5-22.2-4.94,9.73-12.8,20.9-24.6,20-2.17,0.43-3.95,0.874-5.72,1.31,14.9-9.43,30-21.6,33.5-43.3,5.53,2.09,7.22,8.47,7.22,17,0.729-3.72,1.95-7.14,3.66-10.2-0.171-9.96-1.88-14-4.41-14.2zm-9.66,29.5c1.78-3.5,2.99-6.41,4.03-8.91-0.927-0.619-2.15,3.29-4.03,8.91zm4.03-8.91c0.481,0.321,0.915,1.86,1.31,5.06,0.254,0.694,0.388,1.3,0.562,1.97,1.16-13.6,0.707-13.2-1.87-7.03zm1.87,7.03c-0.212,2.48-0.343,4.17-0.656,7.69,0.132,0.75,0.256,1.52,0.281,2.25,1.12-2.9,1.35-6.2,0.375-9.94zm-44,84.8c0.434,0.654,0.922,1.23,1.41,1.78h1.59c-1.05-0.542-2.04-1.12-3-1.78zm-10.6-23.4c1.52-3.15,3.29-5.86,5.25-7.78-2.35,0.669-4.37,3.16-5.25,7.78zm-150-78.1c-3.21,0.395-6.08,2.37-8.34,6.28,4.39-2.91,8.9-4.86,13.4-5.81-1.75-0.479-3.46-0.666-5.06-0.469zm239,4.03c-1.28,5.81-1.9,11.8-1.78,17.6-1.06,23.1-0.844,4.03,1.78,12.2zm-29.5,9.66c-0.804,4.2-1.04,8.76-0.938,13.5,0.494-4.82,0.927-9.41,0.938-13.5zm-0.938,13.5c-1.77,17.2-5.03,37.6,1.78,50.2,3,3.72,5.03,6.82,6.28,9.47-0.805-16.6-7.63-39.8-8.06-59.6zm8.06,59.6c0.198,4.09,0.0627,7.83-0.656,11,2.48-2.42,3.14-5.7,0.656-11zm16.2-72.4c-0.655,2-1.65,37.9,6.19,57.1v-17.5c-3.16-8.1-5.75-15.7-6.19-20.4,0.497-14.8,0.275-20,0-19.1zm-98.4,8.06c-0.908,0.692-1.66,1.54-2.44,2.34,0.693-0.474,1.42-0.79,2.16-1.03,0.111-0.427,0.166-0.889,0.281-1.31zm-0.281,1.31c-6.88,26.4-6.4,60.1-21.5,79.5h12.7c4.61-21.6-0.556-51.1,11-71.1,0.531-0.921,1.08-1.84,1.69-2.72-0.602,0.902-1.17,1.79-1.69,2.72-11.7,21.1-0.898,48.2-4.97,71.1h2.53c0.623-3.05,0.943-6.22,1.22-9.47,0.149,3.37,0.657,6.51,1.5,9.47h7.22c-8.68-20.5-8.8-50.3,2.81-72.7-4.68-6.24-8.9-8.04-12.6-6.84zm-3.19,1.97c-3.53,3.09-6.44,9.04-8.72,16.3-5.56-9.84-15.1-10.7-23.4-7.69,14.9-3.03,16.6,24.7,19.9,22.5-2.43,13.8-2.92,28.3-1.31,35.8,9.72-7.41-1.82-48.9,13.6-66.9zm-32.3,8.72c-2.4,0.527-5.11,1.76-8.25,4.12-0.772,0.697-1.38,1.44-1.97,2.06,2.79-2.53,6.37-4.77,10.2-6.19zm41.7,3.66c1.5,0.084-3.18,20.6-4.88,36.4-0.373-7.19-1.13-14.5-1.87-21.5,4.14-10.8,6.07-14.9,6.75-14.9zm27.3,8.91c0.942,0.411,1.83,0.777,2.72,1.03-4.55,1.85-6.41,3.29-1.97,4.97-1.4,2.09,0.569,2.66,4.12,2.06,9.67,5.91,10.7,16.2,8.06,24.7-3.14-14.7-33.8-31.6-12.9-32.8zm26.8,8.72c9.07-1.59,23.2,62.2,5.72,25.8-7.84-36.7-5.22-14.7-8.81,7.12-0.18-3.57-0.927-7.71-2.53-12.6,0.958-14.3,3.08-19.9,5.62-20.3zm-121,2.16c0.848-0.246,1.38,0.395,0.844,2.53,21.5,8.95,51.5,38.7,20,14.5,17.8,32-43.3-29-29.6-1.97-2.35-1.76-5.01-3.3-7.97-4.22-0.503-11,6.16-12.3,14.8-9.38,0.639-0.686,1.36-1.32,1.97-1.5zm-1.97,1.5c-1.64,1.76-2.5,4.16,2.44,2.16,0.153-0.448,0.286-0.77,0.375-1.12-0.949-0.394-1.9-0.724-2.81-1.03zm-40.8,7.78c-0.26,0.577-0.554,1.13-0.844,1.69,0.321-0.559,0.602-1.11,0.844-1.69zm132,5.91c3.44,3.78,6.1,11,5.44,21.1-3.88-0.357-6.75-6.15-5.44-21.1zm-127,5.16c-8.11,0.153-4.1,14.8,2.16,25h2.06c-3.91-4.11-6.9-10.4-4.97-17.9,3.82-0.643,11.3,2.26,19.2,5.34-1.73-1.55-3.32-3.54-4.59-6.09-6.51-4.62-11-6.43-13.9-6.38zm18.5,12.5c3.54,3.17,7.84,4.44,11.9,4.41-3.84-1.22-7.9-2.84-11.9-4.41zm165-12.3c2.07,6.54,6.35,17,7.31,24.8h2.25c0.298-1.04,0.619-2.09,0.844-3.19-16-26.4-1.44-14.3,10.4,2.81v-9.28c-4.96-6.28-11.6-11.5-20.8-15.2zm-279,6.19,0,5.72c2.65,3.59,5.59,7.07,8.81,10.3-2.31-1.11-4.26-2.06-5.53-2.34-0.993-1.61-2.1-3.19-3.28-4.69v9.66h16.7c-6.59-5.59-12.1-11.9-16.7-18.7zm102,4.97c-1.44,0.249-1.94,1.85-0.75,5.34,3.98,3.53,6.46,6.23,7.97,8.34h3.09c-17.8-13.9-3.96-9.61,3.75,0h3.56c-5.84-7.63-14.3-14.3-17.6-13.7zm131,3.28c-1.06,0.72-2.08,1.27-3.09,1.41,1.13-0.432,2.15-0.946,3.09-1.41zm-171,0.282c4.81,3.07,11.2,6.54,17.3,10.1h7.59c-7.98-3.56-18.2-6.82-24.9-10.1zm70.4,6.66c-4.36-0.216-7.2,1.3-7.97,3.47h19c-4.25-2.26-8.05-3.32-11.1-3.47zm-102,2.81c0.125,0.237,0.335,0.424,0.469,0.656h0.0936c-0.185-0.225-0.381-0.43-0.562-0.656z"/>
</g>
</svg>
